<svg xmlns="http://www.w3.org/2000/svg" width="320" height="90" viewBox="0 0 320 90">
  <rect x="0" y="0" width="320" height="90" rx="14" fill="#0B0B0F"/>
  <rect x="12" y="12" width="66" height="66" rx="12" fill="#FF1E1E"/>
  <path d="M55 33c-2.2-2-5.8-3.2-9.8-3.2-6.4 0-10.2 2.7-10.2 7.1 0 3.8 2.6 5.9 9.1 6.9l2.9.5c3.2.5 4.3 1.3 4.3 2.6 0 1.8-2 2.8-5.3 2.8-3.4 0-6.6-1.2-9-3.2l-3.7 4.9c3.1 2.8 7.6 4.4 12.7 4.4 7.6 0 12-3.1 12-7.9 0-3.9-2.7-6.2-9.1-7.2l-2.9-.5c-3-.5-4.3-1.2-4.3-2.4 0-1.6 1.9-2.5 4.8-2.5 2.9 0 5.7 1 7.6 2.5l3.4-4.6z" fill="#FFD300"/>
  <text x="96" y="56" font-family="Arial, sans-serif" font-size="34" font-weight="800" letter-spacing="2" fill="#FFFFFF">SANT</text>
</svg>
